<?xml version="1.0" ?><!DOCTYPE svg  PUBLIC '-//W3C//DTD SVG 1.1//EN'  'http://www.w3.org/Graphics/SVG/1.1/DTD/svg11.dtd'><svg enable-background="new 0 0 512 512" id="Layer_1" version="1.1" viewBox="0 0 512 512" xml:space="preserve" xmlns="http://www.w3.org/2000/svg" xmlns:xlink="http://www.w3.org/1999/xlink"><g><path d="M448.7,174.8c-8,6.8-16,12.7-22.9,19.6c-35.7,35.9-37.9,89.7-20.2,126.7c11.3,23.6,29.2,40.6,52.6,52   c3.6,1.8,4.4,3.3,3,7.2c-11.4,31.4-26.9,60.5-48.2,86.4c-6.6,8.1-13.5,16.1-21,23.4c-15.3,14.9-33.6,21.4-54.9,16.7   c-9.1-2-18.3-4.3-26.7-8.1c-26.1-11.7-52.3-12.8-79.2-3.5c-11.8,4.1-23.5,8.5-35.5,11.7c-18.7,5.1-35.2-0.1-49.5-12.8   c-21.4-18.8-38-41.3-52.3-65.8c-18.4-31.7-30.6-65.8-37.4-101.7c-6.7-35.4-7.6-70.8,3.2-105.8c7-22.6,18-43,35.4-59.4   c27.4-25.9,59.7-38.1,97.3-32.3c13.5,2.1,26.8,6.9,39.4,12.4c17.4,7.5,33.9,10.1,51.9,1.8c15.2-7,31.2-12.6,47.9-15.4   c33.1-5.5,63.1,1.9,90.7,20.6C433,155.6,442.1,164.2,448.7,174.8z"/><path d="M357.7,4.3c0.8,16-1.5,30.8-6.1,45.3c-7.9,24.9-24.2,43.6-44.8,58.3c-13.4,9.5-29.1,13.5-45.8,13.2c-3.9-0.1-5-1.4-5.1-5.2   c-0.6-25.7,7.4-48.4,23.4-68.4c19.1-23.7,43.9-37.6,73.8-42.9C354.4,4.5,355.7,4.5,357.7,4.3z"/></g></svg>