<?xml version="1.0" encoding="utf-8"?>
<!-- Generator: Adobe Illustrator 25.0.0, SVG Export Plug-In . SVG Version: 6.00 Build 0)  -->
<svg version="1.1"
	 id="svg60" xmlns:cc="http://creativecommons.org/ns#" xmlns:dc="http://purl.org/dc/elements/1.1/" xmlns:rdf="http://www.w3.org/1999/02/22-rdf-syntax-ns#" xmlns:svg="http://www.w3.org/2000/svg"
	 xmlns="http://www.w3.org/2000/svg" xmlns:xlink="http://www.w3.org/1999/xlink" x="0px" y="0px" viewBox="0 0 512 512"
	 style="enable-background:new 0 0 512 512;" xml:space="preserve">
<style type="text/css">
	.st0{fill:#4285F4;}
	.st1{fill:#34A853;}
	.st2{fill:#FBBC04;}
	.st3{fill:#EA4335;}
	.st4{fill:#C5221F;}
</style>
<g id="g18" transform="matrix(18.510943,0,0,18.510943,0,-0.11106566)">
	<path id="path8" class="st0" d="M3.3,23h3.9v-9.4L1.7,9.4v11.9C1.7,22.2,2.4,23,3.3,23z"/>
	<path id="path10" class="st1" d="M20.5,23h3.9c0.9,0,1.7-0.7,1.7-1.7V9.4l-5.5,4.1V23z"/>
	<path id="path12" class="st2" d="M20.5,6.4v7.2L26,9.4V7.2c0-1.4-1.1-2.5-2.5-2.5c-0.5,0-1.1,0.2-1.5,0.5L20.5,6.4z"/>
	<path id="path14" class="st3" d="M7.2,13.6V6.4l6.6,5l6.6-5v7.2l-6.6,5L7.2,13.6z"/>
	<path id="path16" class="st4" d="M1.7,7.2v2.2l5.5,4.1V6.4L5.7,5.2C4.6,4.4,3,4.6,2.2,5.7C1.8,6.1,1.7,6.7,1.7,7.2z"/>
</g>
</svg>
